# xmcd CD database file
#
# Track frame offsets:
#	150
#	20325
#	39192
#	55295
#	73992
#	94222
#	114482
#	132705
#	152217
#	172567
#
# Disc length: 2598 seconds
#
# Revision: 2
# Processed by: cddbd v1.5.1PL0 Copyright (c) Steve Scherf et al.
# Submitted via: CDex 1.51
#
DISCID=820a240a
DTITLE=勇直子 - コンプリートベスト Disc 1
DYEAR=2004
DGENRE=JPop
TTITLE0=彼のビートで動き出す
TTITLE1=ナーバスにならないで
TTITLE2=Don't Go-少年の痛みを-
TTITLE3=センターラインが終わるとき
TTITLE4=スタイルのあった恋
TTITLE5=Just a Beatnik
TTITLE6=トランシーバー・LOVE
TTITLE7=少女の瞳
TTITLE8=Never Need Yesterday
TTITLE9=思い出して
EXTD=YEAR: 2004
EXTT0=
EXTT1=
EXTT2=
EXTT3=
EXTT4=
EXTT5=
EXTT6=
EXTT7=
EXTT8=
EXTT9=
PLAYORDER=
